<svg id="filled_outline" height="512" viewBox="0 0 512 512" width="512" xmlns="http://www.w3.org/2000/svg" data-name="filled outline"><g fill="#02c26a"><path d="m440 168h48v64l-72 32v32l-24 16v16l8 24-8 8-32-24v-32h-40l-40-48h-48v-24l32-24h16l40-40h32l16-16h40l16 16z"/><path d="m24 232 32 16v48l48 48h16v-16l-16-40 56-16v-48l-16-16 16-24v-32h-56l-24 24h-56z"/><path d="m192 144v40l16 32 32-24v-48z"/><path d="m144 352 16 16v80h16l32-72v-32l-24-24h-40z"/><path d="m264 280 40 48h24v32l-32 56h-24l-16-56-40-48v-32z"/><path d="m408 384 16-16h32l16 16v48h-24l-40-24z"/></g><path d="m409.88389 171.40965-49.88389 68.59035-49.88389-68.59035a73.80434 73.80434 0 0 1 -14.11611-43.40965v-.00008a63.99994 63.99994 0 0 1 63.99994-63.99992h.00012a63.99994 63.99994 0 0 1 63.99994 63.99994v.00006a73.80434 73.80434 0 0 1 -14.11611 43.40965z" fill="#ffc431"/><rect fill="#ffa100" height="48" rx="16" width="32" x="344" y="112"/><path d="m48 184v-16h-24a8.00039 8.00039 0 0 0 -8 8v56a8.00022 8.00022 0 0 0 4.42188 7.15527l27.57812 13.78907v43.05566a8.00235 8.00235 0 0 0 2.34277 5.65723l48 48a8.00235 8.00235 0 0 0 5.65723 2.34277h16a8.00039 8.00039 0 0 0 8-8v-16a7.99723 7.99723 0 0 0 -.57227-2.9707l-12.708-31.77149 47.47851-13.56543a8.00054 8.00054 0 0 0 5.80176-7.69238v-48a8.00235 8.00235 0 0 0 -2.34277-5.65723l-11.36323-11.3623 12.3623-18.543a8.00221 8.00221 0 0 0 1.3437-4.43747v-32a8.00039 8.00039 0 0 0 -8-8h-56v16h48v21.57812l-14.65625 21.98438a8.00082 8.00082 0 0 0 .999 10.09473l13.65725 13.65625v38.65234l-50.19824 14.3418a8.0004 8.0004 0 0 0 -5.22949 10.66308l15.42773 38.5703v6.459h-4.68652l-43.31348-43.31348v-44.68652a8.00022 8.00022 0 0 0 -4.42188-7.15527l-27.57812-13.78907v-43.05566z"/><path d="m240 152v-16h-48a8.00039 8.00039 0 0 0 -8 8v40a7.99934 7.99934 0 0 0 .84473 3.57812l16 32a8.0004 8.0004 0 0 0 11.95507 2.82227l24-18-9.5996-12.80078-16.332 12.249-10.8682-21.73728v-30.11133z"/><path d="m144 312a8.00039 8.00039 0 0 0 -8 8v32a8.00235 8.00235 0 0 0 2.34277 5.65723l13.65723 13.65625v76.68652a8.00039 8.00039 0 0 0 8 8h16a8.00131 8.00131 0 0 0 7.31055-4.751l32-72a8.00722 8.00722 0 0 0 .68945-3.249v-32a8.00235 8.00235 0 0 0 -2.34277-5.65723l-24-24a8.00235 8.00235 0 0 0 -5.65723-2.34277zm56 35.31348v26.98925l-29.19922 65.69727h-2.80078v-72a8.00235 8.00235 0 0 0 -2.34277-5.65723l-13.65723-13.65625v-20.68652h28.68652z"/><path d="m328 320h-20.25293l-21.60156-25.9209-12.291 10.24219 24 28.7998a7.99862 7.99862 0 0 0 6.14549 2.87891h16v21.876l-28.64258 50.124h-13.32324l-14.3418-50.19824a7.99574 7.99574 0 0 0 -1.54687-2.92285l-38.14551-45.77539v-21.10352h16v-16h-24a8.00039 8.00039 0 0 0 -8 8v32a7.99881 7.99881 0 0 0 1.85449 5.12109l38.918 46.70215 15.53516 54.375a8.00054 8.00054 0 0 0 7.69235 5.80176h24a8 8 0 0 0 6.94629-4.03125l32-56a7.99833 7.99833 0 0 0 1.05371-3.96875v-32a8.00039 8.00039 0 0 0 -8-8z"/><path d="m266.667 216h13.333v-16h-16a8.00115 8.00115 0 0 0 -4.7998 1.59961l-32 24a8.00229 8.00229 0 0 0 -3.2002 6.40039v24a8.00039 8.00039 0 0 0 8 8h24v-16h-16v-12z"/><path d="m488 160h-48v16h40v50.80078l-67.249 29.88867a8.00131 8.00131 0 0 0 -4.751 7.31055v27.71875l-20.4375 13.625a7.99943 7.99943 0 0 0 -3.5625 6.65625v16a8.0151 8.0151 0 0 0 .41016 2.53027l6.124 18.37012-22.53416-16.90039v-28a8.00039 8.00039 0 0 0 -8-8h-36.25293l-24.26855-29.12109-12.291 10.24218 26.667 32a7.99862 7.99862 0 0 0 6.14548 2.87891h32v24a8.0009 8.0009 0 0 0 3.2002 6.40039l32 24a8.00143 8.00143 0 0 0 10.457-.74316l8-8a8.00185 8.00185 0 0 0 1.93261-8.1875l-7.58981-22.76758v-10.4209l20.4375-13.625a7.99943 7.99943 0 0 0 3.5625-6.65625v-26.80078l67.249-29.88867a8.00131 8.00131 0 0 0 4.751-7.31055v-64a8.00039 8.00039 0 0 0 -8-8z"/><path d="m443.88379 438.86035a8.00777 8.00777 0 0 0 4.11621 1.13965h24a8.00039 8.00039 0 0 0 8-8v-48a8.00235 8.00235 0 0 0 -2.34277-5.65723l-16-16a8.00235 8.00235 0 0 0 -5.65723-2.34277h-32a8.00235 8.00235 0 0 0 -5.65723 2.34277l-16 16a8.00235 8.00235 0 0 0 -2.34277 5.65723v24a8.00153 8.00153 0 0 0 3.88379 6.86035zm-27.88379-51.54687 11.31348-11.31348h25.373l11.31352 11.31348v36.68652h-13.78418l-34.21582-20.5293z"/><path d="m381.65479 117.65967 12.28662-12.28662-11.31441-11.31446-12.28662 12.28662a23.868 23.868 0 0 0 -2.34033-.969v-17.37621h-16.00005v17.37622a23.868 23.868 0 0 0 -2.34033.969l-12.28662-12.28663-11.31446 11.31446 12.28662 12.28662a23.85835 23.85835 0 0 0 -2.34521 10.34033h-16v16h16a23.85835 23.85835 0 0 0 2.34521 10.34033l-12.28662 12.28667 11.31446 11.31446 12.28662-12.28662a23.868 23.868 0 0 0 2.34033.969v17.37616h16v-17.37622a23.868 23.868 0 0 0 2.34033-.969l12.28667 12.28663 11.31441-11.31441-12.28662-12.28662a23.85835 23.85835 0 0 0 2.34521-10.34038h16v-16h-16a23.85835 23.85835 0 0 0 -2.34521-10.34033zm-13.65479 26.34033a8 8 0 0 1 -16 0v-16a8 8 0 0 1 16 0z"/><path d="m432 128a71.99375 71.99375 0 0 0 -139.87158-24h-172.12842a56.0629 56.0629 0 0 0 -56 56v40h16v-40a40.04584 40.04584 0 0 1 40-40h168.45508a72.38965 72.38965 0 0 0 -.45508 8 81.21944 81.21944 0 0 0 10.437 40h-82.437v16h93.38135l17.45459 24h-1.16994a55.69421 55.69421 0 0 0 -50.0879 30.95605l-34.73339 69.46583 14.31054 7.15624 34.7334-69.46582a39.78115 39.78115 0 0 1 35.77735-22.1123h12.80615l15.0581 20.70508a7.99927 7.99927 0 0 0 12.93946 0l26.69484-36.70508h14.83545a16.01833 16.01833 0 0 1 16 16h16a32.03667 32.03667 0 0 0 -32-32h-3.19922l11.55274-15.88477a81.29086 81.29086 0 0 0 15.64648-48.11523zm-28.58594 38.70312v.001l-43.41406 59.69432-43.41406-59.69532a65.38884 65.38884 0 0 1 -12.58594-38.70312 56 56 0 0 1 112 0 65.38884 65.38884 0 0 1 -12.58594 38.70312z"/></svg>